PathFileType	4	(X/Y/Z)	/home/abdul/Desktop/myosuite/custom_workspace/IK/output/S11_12_1.trc
DataRate	CameraRate	NumFrames	NumMarkers	Units	OrigDataRate	OrigDataStartFrame	OrigNumFrames
200.0	200.0	27	3	mm	200.0	1160	1546
Frame#	Time	V_Shoulder			V_Elbow			V_Wrist		
		X1	Y1	Z1	X2	Y2	Z2	X3	Y3	Z3

1160	5.795	-98.89095668976	531.8886342820889	283.43813241038475	-252.5990091700759	353.8816686687658	30.967356096812107	-112.79206287641685	133.98355570859133	63.93767064481605
1161	5.8	-98.90363192814233	531.8672159151162	283.4293315175476	-252.61273847589538	353.81958834802674	30.9792047545131	-112.82695629463532	133.98256190774657	64.1305307371006
1162	5.805	-98.91710984686337	531.8484192270513	283.42139050416904	-252.62677356592218	353.7585549070694	30.992277275080934	-112.85841209849248	133.98599686731814	64.32906329189795
1163	5.81	-98.93135081287018	531.8322761946633	283.41433924891254	-252.6411119135284	353.69850711609206	31.006700733647527	-112.88625244876746	133.99386787918792	64.53325509520204
1164	5.815	-98.94631356372543	531.8188184132209	283.4082089945959	-252.65575752223702	353.63938042878704	31.022613969943293	-112.91031080952864	134.00617467177292	64.74310212141691
1165	5.82	-98.96195525667646	531.8080770206391	283.40303232947923	-252.67072138446036	353.5811072492315	31.04016775854791	-112.93043288058618	134.022909404525	64.95860990918204
1166	5.825	-98.97823152313417	531.8000826215737	283.3988431624868	-252.68602193147734	353.52361721793056	31.059524945681787	-112.94647753056412	134.04405668144523	65.17979390147164
1167	5.83	-98.9950965285564	531.7948652115891	283.3956766922676	-252.70168547235863	353.4668375166438	31.08086055049783	-112.95831772797277	134.0695935832641	65.4066797477483
1168	5.835	-99.01250303771648	531.7924541015292	283.3935693700171	-252.71774661949695	353.41069319154326	31.104361828873213	-112.96584146749265	134.09948971790476	65.63930356604028
1169	5.84	-99.03040248531924	531.7928778422221	283.3925588559999	-252.73424869835964	353.3551074941762	31.130228297753675	-112.96895268851704	134.13370728881907	65.87771216291088
1170	5.845	-99.04874505191229	531.7961641496482	283.39268396973176	-252.75124413904933	353.30000223961974	31.158671718168968	-112.96757218284156	134.1722011807593	66.12196320939847
1171	5.85	-99.06747974502169	531.8023398307067	283.39398463379695	-252.7687948472426	353.2452981811318	31.189916035117367	-112.96163848823912	134.21491906252834	66.37212537112605
1172	5.855	-99.0865544854255	531.8114307097104	283.3965018112976	-252.78697255206959	353.19091540051375	31.22419727261079	-112.95110876451739	134.26180150623313	66.62827839091001
1173	5.86	-99.10591619845964	531.8234615557468	283.4002774369514	-252.80585912850654	353.1367737133146	31.261763382279394	-112.93595964852722	134.31278212255302	66.89051312233816
1174	5.865	-99.12551091023495	531.8384560110354	283.40535434187586	-252.82554689187515	353.0827930879152	31.30287404405611	-112.91618808447309	134.36778771152495	67.15893151293729
1175	5.87	-99.14528384862444	531.8564365204202	283.4117761721157	-252.8461388620817	353.0288940774435	31.347800417597465	-112.89181212577554	134.42673842834157	67.43364653571051
1176	5.875	-99.16517954886415	531.877424262129	283.41958730099634	-252.86774899527887	352.97499826338446	31.396824843246787	-112.86287170464904	134.4895479636545	67.71478206799269
1177	5.88	-99.18514196359165	531.9014390799372	283.4288327354033	-252.89050238070442	352.9210287096588	31.450240491509703	-112.82942936549068	134.5561237378771	68.00247271674941
1178	5.885	-99.20511457713	531.9284994168657	283.4395580161154	-252.91453540053283	352.86691042586324	31.50835096018881	-112.79157095812536	134.62636710898136	68.2968635896298
1179	5.89	-99.22504052380636	531.958622250554	283.45180911233723	-252.93999585067883	352.81257083827876	31.57146981851448	-112.74940628692325	134.70017359329205	68.59811001127576
1180	5.895	-99.24486271007856	531.9918230304319	283.46563231060276	-252.96704302060527	352.7579402671778	31.639920097811046	-112.7030697117971	134.7774330987866	68.9063771845893
1181	5.9	-99.26452394022515	532.0281156168285	283.48107409824325	-252.99584773032356	352.702952408883	31.714033728451447	-112.65272069710039	134.8580301704192	69.22183979686487
1182	5.905	-99.28396704533849	532.0675122221448	283.49818104163666	-253.02659232291893	352.6475448209625	31.79415092307782	-112.5985443044838	134.94184424699853	69.54468157090398
1183	5.91	-99.30313501534454	532.1100233542196	283.51699965947574	-253.05947061109924	352.5916594088788	31.880619506299542	-112.54075162582718	135.02874992915932	69.87509476144511
1184	5.915	-99.32197113375743	532.1556577620121	283.5375762913192	-253.09468777644105	352.53524291234976	31.97379419132261	-112.47958015244907	135.1186172579806	70.21327959746054
1185	5.92	-99.34041911486206	532.2044223837271	283.5599569617063	-253.13246022019803	352.4782473896262	32.07403580421381	-112.41529407690354	135.21131200381467	70.55944367109416
1186	5.925	-99.358423243004	532.2563222975012	283.5841872401428	-253.1730153647417	352.42063069784354	32.18171045675857	-112.34818452380783	135.30669596490355	70.9138012742382
